<svg xmlns="http://www.w3.org/2000/svg" viewBox="0 0 128 128" width="128" height="128" role="img" aria-label="Avatar 8">
<rect width="128" height="128" fill="#E0E7FF"/>
<circle cx="64" cy="50" r="33" fill="#0E0906"/>
<path d="M16 128 C16 98 40 92 64 92 C88 92 112 98 112 128 Z" fill="#4F46E5"/>
<path d="M50 92 L64 108 L78 92 Z" fill="#4338CA"/>
<rect x="55" y="74" width="18" height="22" rx="8" fill="#4A2C17"/>
<ellipse cx="64" cy="58" rx="24" ry="27" fill="#4A2C17"/>
<ellipse cx="40.5" cy="60" rx="3.5" ry="6" fill="#4A2C17"/><ellipse cx="87.5" cy="60" rx="3.5" ry="6" fill="#4A2C17"/>
<path d="M38 50 C38 28 90 28 90 50 C84 42 44 42 38 50 Z" fill="#0E0906"/>

<circle cx="54" cy="58" r="2.6" fill="#1F2937"/><circle cx="74" cy="58" r="2.6" fill="#1F2937"/>
<path d="M55 69 C60 75 68 75 73 69" fill="none" stroke="#1F2937" stroke-width="2.4" stroke-linecap="round"/>
</svg>